<?xml version="1.0" standalone="no"?>
<!DOCTYPE svg PUBLIC "-//W3C//DTD SVG 20010904//EN"
 "http://www.w3.org/TR/2001/REC-SVG-20010904/DTD/svg10.dtd">
<svg version="1.0" xmlns="http://www.w3.org/2000/svg"
 width="1816.000000pt" height="1056.000000pt" viewBox="0 0 1816.000000 1056.000000"
 preserveAspectRatio="xMidYMid meet">

<g transform="translate(0.000000,1056.000000) scale(0.100000,-0.100000)"
fill="#000000" stroke="none">
<path d="M3040 8533 c-112 -12 -280 -37 -382 -58 -493 -100 -1014 -343 -1363
-635 -587 -491 -981 -1131 -1135 -1841 -62 -286 -87 -679 -61 -954 74 -783
393 -1470 935 -2011 83 -82 195 -185 249 -228 86 -68 100 -76 115 -65 282 217
590 557 782 864 96 153 222 404 283 565 128 334 188 623 209 998 11 204 12
212 32 212 12 0 143 -14 291 -30 295 -33 370 -35 580 -20 893 66 1710 494
2277 1192 79 97 263 365 273 399 11 32 -125 240 -295 454 -96 120 -331 355
-450 451 -489 392 -1069 632 -1690 699 -123 13 -550 19 -650 8z m695 -447
c303 -44 555 -121 830 -256 300 -147 493 -287 736 -536 122 -125 249 -281 249
-305 0 -23 -161 -216 -267 -320 -149 -147 -251 -232 -386 -322 -501 -335
-1037 -491 -1632 -474 -212 6 -370 24 -522 58 l-93 21 -11 42 c-72 272 -149
487 -259 721 -127 267 -333 580 -530 805 -36 41 -71 82 -78 91 -11 14 0 24 80
76 351 227 719 357 1158 408 151 18 573 12 725 -9z m-2257 -885 c261 -303 477
-685 563 -996 11 -38 22 -78 25 -89 5 -16 0 -14 -43 9 -86 49 -326 211 -409
276 -166 131 -356 321 -473 473 l-44 56 18 40 c10 22 41 63 69 92 100 103 213
208 224 208 5 0 37 -31 70 -69z m-414 -946 c78 -77 179 -171 226 -208 236
-189 549 -369 805 -462 l90 -33 -1 -218 c-2 -254 -18 -397 -70 -623 -72 -311
-191 -600 -357 -866 -71 -114 -240 -338 -314 -415 l-62 -65 -48 54 c-197 223
-410 561 -527 834 -148 347 -214 643 -223 997 -11 427 43 733 198 1120 l53
132 44 -53 c25 -30 108 -117 186 -194z"/>
<path d="M9805 7094 c-185 -28 -329 -70 -457 -134 -197 -98 -367 -267 -500
-495 -161 -278 -251 -751 -234 -1233 12 -319 40 -512 107 -719 82 -253 213
-457 388 -607 212 -181 463 -279 781 -307 401 -34 812 67 1032 255 204 175
322 364 371 596 34 162 29 227 -19 268 -26 23 -28 23 -266 20 l-240 -3 -24
-28 c-13 -15 -26 -40 -29 -55 -21 -98 -69 -178 -169 -277 -107 -106 -272 -164
-486 -172 -112 -4 -152 -1 -235 16 -371 77 -574 352 -575 782 0 68 3 89 17
100 13 12 188 15 1009 19 l992 5 27 25 c50 46 55 72 55 302 0 563 -66 839
-273 1141 -166 243 -416 407 -732 479 -72 16 -132 21 -300 23 -115 2 -223 1
-240 -1z m353 -550 c260 -52 429 -184 537 -418 41 -88 65 -185 72 -296 5 -83
5 -86 -22 -110 l-27 -25 -706 -2 c-562 -2 -712 0 -732 10 -24 13 -25 15 -24
122 1 80 7 132 23 190 53 189 184 363 343 453 137 78 366 111 536 76z"/>
<path d="M13148 7090 c-216 -27 -466 -120 -644 -240 -193 -131 -327 -317 -413
-575 -85 -256 -105 -430 -105 -900 1 -318 3 -378 23 -515 63 -443 191 -696
456 -906 268 -212 613 -317 995 -301 160 7 259 22 395 62 371 109 628 344 741
681 53 158 77 363 51 427 -26 61 -53 67 -289 67 -209 0 -271 -8 -287 -38 -5
-9 -14 -66 -20 -126 -18 -159 -59 -255 -146 -335 -58 -53 -184 -114 -295 -142
-74 -19 -103 -21 -230 -16 -229 8 -375 62 -501 184 -76 73 -144 196 -179 323
-47 171 -69 537 -51 862 21 386 66 533 209 689 62 67 121 108 217 147 109 44
185 57 340 57 157 -1 239 -18 363 -77 161 -78 302 -295 302 -468 0 -27 8 -58
20 -77 35 -58 58 -63 272 -63 219 0 239 6 273 76 15 31 17 52 11 128 -12 162
-40 272 -106 412 -151 326 -436 548 -826 645 -75 18 -123 22 -299 25 -115 1
-240 -1 -277 -6z"/>
<path d="M16275 7085 c-193 -36 -373 -101 -501 -181 -175 -109 -282 -215 -383
-377 -190 -302 -251 -629 -238 -1267 9 -430 47 -645 154 -880 111 -242 324
-469 548 -582 320 -162 820 -192 1211 -73 431 132 731 466 844 943 45 189 54
307 55 697 0 393 -7 492 -49 695 -73 349 -255 634 -516 809 -115 77 -160 100
-275 141 -195 69 -276 82 -535 86 -176 2 -255 0 -315 -11z m509 -585 c260 -66
436 -279 491 -594 39 -226 46 -822 11 -1036 -26 -165 -78 -280 -178 -397 -98
-116 -211 -185 -368 -224 -119 -30 -318 -24 -435 14 -251 82 -407 283 -460
593 -48 281 -45 807 6 1058 40 199 88 298 199 406 114 113 237 177 382 199 88
14 261 4 352 -19z"/>
<path d="M5785 5343 c-411 -33 -711 -99 -1045 -231 -440 -173 -792 -404 -1130
-742 -272 -271 -460 -539 -635 -902 -105 -218 -207 -541 -249 -788 -21 -124
-46 -359 -46 -436 l0 -62 33 -6 c239 -44 677 -62 912 -37 426 45 782 151 1161
345 319 164 593 365 835 612 473 485 775 1066 893 1714 31 174 62 480 48 480
-4 0 -34 5 -67 10 -213 36 -551 56 -710 43z m248 -585 c-52 -281 -202 -654
-370 -920 -204 -323 -535 -654 -859 -861 -194 -123 -459 -243 -683 -307 -256
-74 -433 -101 -758 -115 l-141 -6 19 88 c122 553 375 1014 777 1411 361 357
854 621 1347 721 225 45 327 56 546 59 l136 2 -14 -72z"/>
</g>
</svg>
